<svg xmlns="http://www.w3.org/2000/svg" fill="none" viewBox="5.4 5.4 13.2 13.2"><path fill="currentcolor" d="m12 13.4-4.9 4.9a.948.948 0 0 1-.7.275.948.948 0 0 1-.7-.275.948.948 0 0 1-.275-.7c0-.283.091-.517.275-.7l4.9-4.9-4.9-4.9a.948.948 0 0 1-.275-.7c0-.283.091-.517.275-.7a.948.948 0 0 1 .7-.275c.283 0 .516.092.7.275l4.9 4.9 4.9-4.9a.948.948 0 0 1 .7-.275c.283 0 .516.092.7.275a.948.948 0 0 1 .275.7.948.948 0 0 1-.275.7L13.4 12l4.9 4.9a.949.949 0 0 1 .275.7.948.948 0 0 1-.275.7.948.948 0 0 1-.7.275.948.948 0 0 1-.7-.275L12 13.4Z"/></svg>
