<svg xmlns="http://www.w3.org/2000/svg" fill="none" viewBox="3.4 6 18.02 12"><path fill="currentcolor" d="M4.412 18a.967.967 0 0 1-.712-.288.968.968 0 0 1-.288-.712c0-.283.096-.52.288-.712A.967.967 0 0 1 4.412 16h16a.97.97 0 0 1 .713.288c.191.191.287.429.287.712s-.096.52-.287.712a.968.968 0 0 1-.713.288h-16Zm0-5a.967.967 0 0 1-.712-.287.968.968 0 0 1-.288-.713.97.97 0 0 1 .288-.713.967.967 0 0 1 .712-.287h16c.283 0 .52.096.713.287.191.192.287.43.287.713s-.096.52-.287.713a.968.968 0 0 1-.713.287h-16Zm0-5a.968.968 0 0 1-.712-.287A.968.968 0 0 1 3.412 7a.97.97 0 0 1 .288-.713A.968.968 0 0 1 4.412 6h16c.283 0 .52.096.713.287.191.192.287.43.287.713s-.096.52-.287.713a.968.968 0 0 1-.713.287h-16Z"/></svg>
