<svg xmlns="http://www.w3.org/2000/svg" fill="currentcolor" viewBox="4.02 3.67 13.02 12.68"><path d="m6.878 10.828 4.084 4.083a.763.763 0 0 1 .24.583.84.84 0 0 1-.261.584.88.88 0 0 1-.584.24.764.764 0 0 1-.583-.24l-5.5-5.5a.731.731 0 0 1-.177-.271.922.922 0 0 1-.052-.313c0-.111.017-.215.052-.312a.731.731 0 0 1 .177-.271l5.5-5.5a.777.777 0 0 1 .573-.23.85.85 0 0 1 .594.23c.166.166.25.364.25.594a.811.811 0 0 1-.25.593L6.878 9.161h9.313c.236 0 .434.08.594.24.16.16.24.357.24.593s-.08.434-.24.594a.806.806 0 0 1-.594.24H6.878Z"/></svg>
