<svg xmlns="http://www.w3.org/2000/svg" fill="none" viewBox="10.1 7.42 7.79 13.14"><path fill="currentcolor" stroke="currentcolor" stroke-width=".025" d="M11.316 7.508c.328 0 .597.106.808.318l5.366 5.366c.116.115.197.24.245.375.048.134.073.278.073.432 0 .155-.025.3-.073.434-.048.134-.13.259-.245.374l-5.366 5.367c-.211.212-.48.318-.808.318-.327 0-.596-.107-.807-.318a1.094 1.094 0 0 1-.318-.807c0-.328.106-.597.318-.808l4.55-4.55.008-.01-4.558-4.558a1.094 1.094 0 0 1-.318-.808c0-.327.106-.596.318-.807a1.09 1.09 0 0 1 .807-.318Z"/></svg>
