<svg xmlns="http://www.w3.org/2000/svg" fill="none" viewBox="10.1 7.42 7.79 13.14"><path fill="currentcolor" stroke="currentcolor" stroke-width=".025" d="M16.684 7.508c-.328 0-.597.106-.808.318l-5.366 5.366a.997.997 0 0 0-.245.375 1.277 1.277 0 0 0-.073.432c0 .155.025.3.073.434.048.134.13.259.245.374l5.366 5.367c.211.212.48.318.808.318.327 0 .596-.107.807-.318.212-.21.317-.48.318-.807 0-.328-.107-.597-.318-.808l-4.55-4.55-.008-.01 4.558-4.558c.212-.211.318-.48.318-.808 0-.327-.107-.596-.318-.807a1.093 1.093 0 0 0-.807-.318Z"/></svg>
