<svg width="90px" height="23px" viewBox="0 0 466 122" version="1.1" xmlns="http://www.w3.org/2000/svg" xmlns:xlink="http://www.w3.org/1999/xlink" xml:space="preserve" xmlns:serif="http://www.serif.com/" style="fill-rule:evenodd;clip-rule:evenodd;stroke-linejoin:round;stroke-miterlimit:2;">
    <g transform="matrix(5.55556,0,0,-5.55556,1392.39,-41.1389)">
        <path d="M-235.837,-15.946C-235.837,-12.2 -238.57,-9.394 -242.105,-9.394C-245.639,-9.394 -248.373,-12.211 -248.373,-15.946C-248.373,-19.681 -245.673,-22.41 -242.105,-22.41C-238.536,-22.41 -235.837,-19.681 -235.837,-15.946M-250.631,-15.924C-250.631,-11.107 -246.961,-7.471 -242.105,-7.471C-237.249,-7.471 -233.579,-11.107 -233.579,-15.924C-233.579,-20.73 -237.238,-24.332 -242.127,-24.332C-246.995,-24.343 -250.631,-20.741 -250.631,-15.924" style="fill:rgb(100,98,98);fill-rule:nonzero;"/>
    </g>
    <g transform="matrix(5.55556,0,0,-5.55556,1392.39,-13.2)">
        <path d="M-226.046,-7.713L-226.046,-9.746C-226.283,-9.713 -226.633,-9.691 -226.916,-9.691C-228.09,-9.691 -229.185,-10.255 -229.999,-11.282L-229.999,-19.072L-232.133,-19.072L-232.133,-7.923L-230.044,-7.923L-230.044,-9.083C-228.869,-8.033 -227.91,-7.713 -226.046,-7.713" style="fill:rgb(100,98,98);fill-rule:nonzero;"/>
    </g>
    <g transform="matrix(5.55556,0,0,-5.55556,1392.39,15.7556)">
        <path d="M-215.544,-8.268C-215.544,-5.992 -217.16,-4.29 -219.316,-4.29C-220.649,-4.29 -221.903,-4.943 -222.592,-6.091L-222.592,-10.5C-221.914,-11.594 -220.717,-12.279 -219.361,-12.279C-217.261,-12.29 -215.544,-10.611 -215.544,-8.268M-213.365,-8.246C-213.365,-11.572 -215.996,-14.08 -219.136,-14.08C-220.547,-14.08 -221.744,-13.56 -222.557,-12.599L-222.557,-19.073L-224.691,-19.073L-224.691,-2.721L-222.625,-2.721L-222.625,-4.103C-221.711,-3.053 -220.423,-2.511 -218.989,-2.511C-215.827,-2.5 -213.365,-5.009 -213.365,-8.246" style="fill:rgb(100,98,98);fill-rule:nonzero;"/>
    </g>
    <g transform="matrix(5.55556,0,0,-5.55556,1392.39,-42.7944)">
        <path d="M-201.688,-17.669L-201.688,-24.409L-203.822,-24.409L-203.822,-17.669C-203.822,-15.901 -204.872,-14.83 -206.555,-14.83C-207.922,-14.83 -209.255,-15.514 -210,-16.388L-210,-24.398L-212.134,-24.398L-212.134,-7.703L-210.045,-7.703L-210.045,-14.432C-208.96,-13.581 -207.549,-13.039 -206.103,-13.039C-203.348,-13.039 -201.688,-14.951 -201.688,-17.669" style="fill:rgb(100,98,98);fill-rule:nonzero;"/>
    </g>
    <g transform="matrix(5.55556,0,0,-5.55556,1392.39,-12.0444)">
        <path d="M-191.253,-15.493L-191.253,-11.084C-191.931,-9.991 -193.128,-9.305 -194.483,-9.305C-196.595,-9.305 -198.311,-10.974 -198.311,-13.328C-198.311,-15.604 -196.697,-17.305 -194.54,-17.305C-193.207,-17.294 -191.954,-16.631 -191.253,-15.493M-190.779,-18.863L-191.197,-17.449C-192.112,-18.532 -193.41,-19.073 -194.867,-19.073C-198.029,-19.073 -200.491,-16.565 -200.491,-13.338C-200.491,-10.013 -197.86,-7.504 -194.72,-7.504C-193.309,-7.504 -192.112,-8.024 -191.298,-8.985L-191.298,-7.715L-189.164,-7.715L-189.164,-17.272L-188.803,-18.863L-190.779,-18.863Z" style="fill:rgb(100,98,98);fill-rule:nonzero;"/>
    </g>
    <g transform="matrix(5.55556,0,0,-5.55556,1392.39,-13.15)">
        <path d="M-176.799,-12.333L-176.799,-19.073L-178.945,-19.073L-178.945,-12.333C-178.945,-10.565 -179.916,-9.494 -181.655,-9.494C-183.044,-9.494 -184.377,-10.178 -185.122,-11.052L-185.122,-19.062L-187.256,-19.062L-187.256,-7.914L-185.156,-7.914L-185.156,-9.096C-184.071,-8.245 -182.66,-7.703 -181.192,-7.703C-178.392,-7.703 -176.799,-9.615 -176.799,-12.333" style="fill:rgb(100,98,98);fill-rule:nonzero;"/>
    </g>
    <g transform="matrix(5.55556,0,0,-5.55556,1392.39,-11.8556)">
        <path d="M-171.265,-19.017C-172.88,-19.017 -174.585,-18.487 -175.737,-17.526L-174.563,-15.978C-173.569,-16.741 -172.428,-17.161 -171.22,-17.161C-169.82,-17.161 -168.984,-16.575 -168.984,-15.725C-168.984,-13.36 -175.183,-14.73 -175.183,-10.874C-175.183,-8.852 -173.501,-7.526 -170.836,-7.526C-169.368,-7.526 -168.081,-7.924 -166.985,-8.631L-168.159,-10.167C-168.961,-9.636 -169.887,-9.36 -170.892,-9.36C-172.225,-9.36 -173.049,-9.869 -173.049,-10.664C-173.049,-12.873 -166.85,-11.758 -166.85,-15.548C-166.85,-17.603 -168.679,-19.017 -171.265,-19.017" style="fill:rgb(100,98,98);fill-rule:nonzero;"/>
    </g>
</svg>
