<svg xmlns="http://www.w3.org/2000/svg" fill="none" viewBox="5.75 5.75 16.47 16.47"><path fill="currentcolor" stroke="currentcolor" stroke-width=".025" d="M14 5.846c.286 0 .531.085.736.254l.086.078c.221.221.332.495.332.822v5.846H21c.286 0 .531.085.736.254l.086.078c.221.221.332.495.332.822 0 .287-.085.532-.255.737l-.077.086a1.117 1.117 0 0 1-.822.332h-5.846V21c0 .287-.085.532-.255.737l-.077.086a1.117 1.117 0 0 1-.822.332c-.287 0-.532-.086-.737-.255l-.085-.077a1.117 1.117 0 0 1-.332-.823v-5.845H7c-.287 0-.532-.086-.737-.255l-.085-.077A1.117 1.117 0 0 1 5.846 14c0-.287.084-.533.254-.738l.078-.085c.22-.22.495-.332.822-.332h5.846V7c0-.286.084-.532.254-.737l.078-.085c.22-.22.495-.332.822-.332Z"/></svg>
