<svg xmlns="http://www.w3.org/2000/svg" fill="none" viewBox="2 1.5 20 21"><path fill="currentcolor" d="M4 21.5c-.55 0-1.02-.196-1.413-.587A1.926 1.926 0 0 1 2 19.5v-14c0-.55.196-1.02.587-1.412A1.926 1.926 0 0 1 4 3.5h1v-1a.97.97 0 0 1 .287-.712A.968.968 0 0 1 6 1.5a.97.97 0 0 1 .713.288A.968.968 0 0 1 7 2.5v1h8v-1a.97.97 0 0 1 .287-.712A.968.968 0 0 1 16 1.5c.283 0 .52.096.712.288A.965.965 0 0 1 17 2.5v1h1c.55 0 1.02.196 1.413.588.391.391.587.862.587 1.412v4.675c0 .283-.096.52-.288.712a.968.968 0 0 1-.712.288.968.968 0 0 1-.712-.288.968.968 0 0 1-.288-.712V9.5H4v10h5.8c.283 0 .52.096.712.288.192.191.288.429.288.712s-.096.52-.288.712a.968.968 0 0 1-.712.288H4Zm13 1c-1.383 0-2.563-.488-3.537-1.462C12.488 20.062 12 18.883 12 17.5s.488-2.563 1.463-3.537c.975-.975 2.154-1.463 3.537-1.463s2.563.488 3.538 1.463C21.512 14.938 22 16.117 22 17.5s-.488 2.563-1.462 3.538c-.976.974-2.155 1.462-3.538 1.462Zm.5-5.2V15a.48.48 0 0 0-.15-.35.48.48 0 0 0-.7 0 .48.48 0 0 0-.15.35v2.275a.997.997 0 0 0 .3.725l1.525 1.525a.48.48 0 0 0 .7 0 .48.48 0 0 0 0-.7L17.5 17.3Z"/></svg>
