<svg xmlns="http://www.w3.org/2000/svg" fill="none" viewBox="2.63 2.07 15.38 15.85"><path fill="currentcolor" d="M4.843 17.9a2.13 2.13 0 0 1-1.566-.642 2.13 2.13 0 0 1-.642-1.566V4.308c0-.615.214-1.137.642-1.566A2.13 2.13 0 0 1 4.843 2.1h4.682c.307 0 .568.107.782.322.215.214.322.475.322.782 0 .307-.107.567-.322.782a1.065 1.065 0 0 1-.782.322H4.843v11.384h4.682c.307 0 .568.107.782.322.215.215.322.476.322.782 0 .307-.107.568-.322.782a1.065 1.065 0 0 1-.782.322H4.843Zm9.392-6.796h-5.19c-.307 0-.567-.107-.782-.322A1.065 1.065 0 0 1 7.94 10c0-.307.107-.567.322-.782.215-.215.475-.322.782-.322h5.19l-1.291-1.292a1.037 1.037 0 0 1-.312-.763c0-.3.104-.557.312-.771.207-.222.463-.334.766-.337a1.06 1.06 0 0 1 .786.328l3.168 3.167c.214.222.32.48.32.772 0 .293-.106.55-.32.772l-3.168 3.167a1.02 1.02 0 0 1-.776.328 1.054 1.054 0 0 1-.776-.337 1.057 1.057 0 0 1-.307-.776c.003-.304.108-.56.316-.767l1.282-1.283Z"/></svg>
