<svg xmlns="http://www.w3.org/2000/svg" fill="none" viewBox="3.47 2.92 14.15 14.18"><path fill="currentcolor" d="M10.536 12.732a1.123 1.123 0 0 1-.784-.324L6.576 9.232a1.036 1.036 0 0 1-.316-.772c.003-.3.108-.558.316-.772.221-.222.482-.334.782-.337.3-.003.56.106.782.328l1.292 1.292V4.037c0-.307.107-.568.322-.782.214-.215.475-.322.782-.322.307 0 .567.107.782.322.215.214.322.475.322.782V8.97l1.292-1.292c.213-.222.47-.333.77-.334.3 0 .56.11.782.331.216.222.325.481.328.778a1.05 1.05 0 0 1-.328.778l-3.165 3.176a1.078 1.078 0 0 1-.365.242 1.124 1.124 0 0 1-.418.082Zm-4.859 4.335a2.13 2.13 0 0 1-1.566-.643 2.13 2.13 0 0 1-.642-1.566v-1.395c0-.307.107-.568.322-.783.215-.214.475-.322.782-.322.307 0 .567.108.782.322.215.215.322.476.322.783v1.396h9.718v-1.396c0-.307.107-.568.322-.783.214-.214.475-.322.782-.322.306 0 .567.108.782.322.215.215.322.476.322.783v1.396a2.13 2.13 0 0 1-.643 1.565 2.13 2.13 0 0 1-1.565.643H5.677Z"/></svg>
