<svg xmlns="http://www.w3.org/2000/svg" fill="none" viewBox="1.78 1.25 17.52 17.5"><path fill="currentcolor" d="M5.468 14.074a8.658 8.658 0 0 1 2.352-1.235 8.264 8.264 0 0 1 2.717-.445 8.12 8.12 0 0 1 2.732.463c.87.309 1.647.718 2.332 1.229a6.853 6.853 0 0 0 1.076-1.885c.255-.68.383-1.413.383-2.2 0-1.8-.638-3.338-1.913-4.613-1.275-1.276-2.812-1.913-4.613-1.913-1.8 0-3.337.637-4.612 1.913C4.647 6.663 4.009 8.2 4.009 10c0 .78.126 1.51.377 2.19a6.608 6.608 0 0 0 1.082 1.884Zm5.066-3.134c-.85 0-1.565-.287-2.143-.862-.578-.574-.867-1.287-.867-2.137 0-.851.289-1.566.867-2.144.578-.578 1.293-.867 2.143-.867.851 0 1.566.289 2.144.867.578.578.867 1.293.867 2.144 0 .85-.289 1.563-.867 2.137-.578.575-1.293.862-2.144.862Zm0 7.794a8.506 8.506 0 0 1-3.403-.686 8.819 8.819 0 0 1-2.775-1.87 8.816 8.816 0 0 1-1.87-2.776A8.513 8.513 0 0 1 1.801 10c0-1.207.228-2.34.685-3.402a8.82 8.82 0 0 1 1.87-2.775 8.816 8.816 0 0 1 2.776-1.87 8.513 8.513 0 0 1 3.404-.685 8.51 8.51 0 0 1 3.402.685 8.82 8.82 0 0 1 2.775 1.87 8.819 8.819 0 0 1 1.87 2.776 8.515 8.515 0 0 1 .685 3.403 8.508 8.508 0 0 1-.685 3.402 8.823 8.823 0 0 1-1.87 2.776 8.815 8.815 0 0 1-2.776 1.87 8.513 8.513 0 0 1-3.403.685Zm0-2.208a6.32 6.32 0 0 0 1.954-.294 6.642 6.642 0 0 0 1.721-.85 6.81 6.81 0 0 0-1.715-.857 6.274 6.274 0 0 0-1.96-.287c-.72 0-1.371.096-1.953.287a6.841 6.841 0 0 0-1.71.857 6.67 6.67 0 0 0 1.716.85 6.264 6.264 0 0 0 1.947.294Zm0-7.43c.33 0 .605-.11.826-.33.22-.22.33-.496.33-.825 0-.33-.11-.607-.33-.831a1.11 1.11 0 0 0-.825-.337c-.33 0-.605.112-.826.337a1.14 1.14 0 0 0-.33.83c0 .33.11.605.33.826.22.22.496.33.825.33Z"/></svg>
