<svg xmlns="http://www.w3.org/2000/svg" fill="none" viewBox="1 3.4 19.1 13.68"><g clip-path="url(#a)"><path fill="currentcolor" d="M5.952 13.77a8.26 8.26 0 0 1 1.906.218 9.164 9.164 0 0 1 1.844.656V6.436a7.137 7.137 0 0 0-1.812-.75 7.646 7.646 0 0 0-3.427-.104 7.22 7.22 0 0 0-1.427.437v8.25a9.453 9.453 0 0 1 1.447-.375 8.56 8.56 0 0 1 1.47-.125Zm5.417.874a9.163 9.163 0 0 1 1.844-.656 8.56 8.56 0 0 1 3.375-.094c.479.084.961.209 1.448.375V6.02a7.223 7.223 0 0 0-1.428-.437 7.682 7.682 0 0 0-3.427.104 7.138 7.138 0 0 0-1.812.75v8.208Zm-.798 2.421c-.202 0-.402-.024-.6-.072a1.869 1.869 0 0 1-.536-.222 7.489 7.489 0 0 0-1.681-.724 6.391 6.391 0 0 0-1.802-.258c-.556 0-1.103.079-1.64.235a8.364 8.364 0 0 0-1.552.629c-.401.207-.794.198-1.18-.03-.384-.226-.576-.557-.576-.991V5.602c0-.263.06-.508.18-.734.119-.227.298-.397.537-.51a8.834 8.834 0 0 1 2.036-.721 9.996 9.996 0 0 1 2.159-.233 9.25 9.25 0 0 1 2.4.313 8.068 8.068 0 0 1 2.22.973 8.634 8.634 0 0 1 2.224-.967 9.027 9.027 0 0 1 2.396-.319c.737 0 1.456.078 2.158.233a8.852 8.852 0 0 1 2.036.72c.239.114.418.284.538.51.12.227.18.472.18.735v10.206c0 .406-.191.702-.572.889-.38.186-.776.171-1.185-.044a8.363 8.363 0 0 0-1.552-.629 5.976 5.976 0 0 0-3.408.028 7.96 7.96 0 0 0-1.644.72 1.87 1.87 0 0 1-.537.22 2.496 2.496 0 0 1-.599.073Z"/></g><defs><clipPath id="a"><path fill="#fff" d="M.535 0h20v20h-20z"/></clipPath></defs></svg>
