<svg xmlns="http://www.w3.org/2000/svg" fill="none" viewBox="2.22 1.42 16.63 15.67"><path fill="currentcolor" d="M3.469 14.859V5.505L2.33 3.03a1.046 1.046 0 0 1-.033-.841c.107-.29.3-.5.58-.628.278-.129.56-.142.846-.039.286.103.493.295.622.576l1.57 3.376h9.242l1.569-3.388c.128-.279.338-.47.628-.573.29-.103.574-.087.853.048.27.13.458.34.566.629a1.04 1.04 0 0 1-.032.84l-1.138 2.474v9.354a2.13 2.13 0 0 1-.643 1.565 2.13 2.13 0 0 1-1.566.643H5.677a2.13 2.13 0 0 1-1.566-.643 2.13 2.13 0 0 1-.642-1.565Zm5.4-3.931h3.333a.897.897 0 0 0 .661-.267.897.897 0 0 0 .267-.66.897.897 0 0 0-.267-.662.897.897 0 0 0-.66-.266H8.868a.897.897 0 0 0-.66.266.897.897 0 0 0-.268.661c0 .263.09.483.267.661a.897.897 0 0 0 .661.267Zm-3.192 3.93h9.717V7.684H5.677v7.176Z"/></svg>
