<svg xmlns="http://www.w3.org/2000/svg" width="20" height="19" viewBox="0 0 20 19" fill="none">
  <path d="M18 4.5H14.25C14.25 3.30653 13.7759 2.16193 12.932 1.31802C12.0881 0.474106 10.9435 0 9.75 0C8.55653 0 7.41193 0.474106 6.56802 1.31802C5.72411 2.16193 5.25 3.30653 5.25 4.5H1.5C1.10218 4.5 0.720644 4.65804 0.43934 4.93934C0.158035 5.22064 0 5.60218 0 6V17.25C0 17.6478 0.158035 18.0294 0.43934 18.3107C0.720644 18.592 1.10218 18.75 1.5 18.75H18C18.3978 18.75 18.7794 18.592 19.0607 18.3107C19.342 18.0294 19.5 17.6478 19.5 17.25V6C19.5 5.60218 19.342 5.22064 19.0607 4.93934C18.7794 4.65804 18.3978 4.5 18 4.5ZM9.75 1.5C10.5456 1.5 11.3087 1.81607 11.8713 2.37868C12.4339 2.94129 12.75 3.70435 12.75 4.5H6.75C6.75 3.70435 7.06607 2.94129 7.62868 2.37868C8.19129 1.81607 8.95435 1.5 9.75 1.5ZM18 17.25H1.5V6H5.25V7.5C5.25 7.69891 5.32902 7.88968 5.46967 8.03033C5.61032 8.17098 5.80109 8.25 6 8.25C6.19891 8.25 6.38968 8.17098 6.53033 8.03033C6.67098 7.88968 6.75 7.69891 6.75 7.5V6H12.75V7.5C12.75 7.69891 12.829 7.88968 12.9697 8.03033C13.1103 8.17098 13.3011 8.25 13.5 8.25C13.6989 8.25 13.8897 8.17098 14.0303 8.03033C14.171 7.88968 14.25 7.69891 14.25 7.5V6H18V17.25Z" fill="#373736"/>
</svg>
